<svg viewBox="0 0 800 500" preserveAspectRatio="none" xmlns="http://www.w3.org/2000/svg" xmlns:xlink="http://www.w3.org/1999/xlink" width="100%" id="blobSvg">
  <g transform="translate(-297, -18)">
    <path class="blob" d="M453,292Q452,334,429,370Q406,406,373,436.5Q340,467,295,460Q250,453,207,455Q164,457,132,428.5Q100,400,77.5,365.5Q55,331,49,290.5Q43,250,49.5,210Q56,170,78,135Q100,100,133.5,75Q167,50,208.5,25.5Q250,1,290,29.5Q330,58,372,72Q414,86,447,120.5Q480,155,467,202.5Q454,250,453,292Z" fill="#2ec4b6"></path>
  </g>
</svg>